HIERARCHY
ROOT Hips
{
	OFFSET 0.000000 97.167313 0.000000
	CHANNELS 6 Xposition Yposition Zposition Xrotation Yrotation Zrotation
	JOINT Spine
	{
		OFFSET 0.000000 13.784798 0.064400
		CHANNELS 3 Xrotation Yrotation Zrotation
		JOINT Spine1
		{
			OFFSET 0.000000 12.037903 0.404700
			CHANNELS 3 Xrotation Yrotation Zrotation
			JOINT Spine2
			{
				OFFSET 0.000000 17.795601 0.420200
				CHANNELS 3 Xrotation Yrotation Zrotation
				JOINT Neck
				{
					OFFSET 0.000000 39.131302 11.954600
					CHANNELS 3 Xrotation Yrotation Zrotation
					JOINT Head
					{
						OFFSET 0.000000 14.456192 15.627699
						CHANNELS 3 Xrotation Yrotation Zrotation
						JOINT HeadTop_End
						{
							OFFSET 0.000000 15.703506 7.603401
							CHANNELS 3 Xrotation Yrotation Zrotation
							End Site
							{
								OFFSET 0.000000 17.447403 0.000000
							}
						}
					}
				}
				JOINT LeftShoulder
				{
					OFFSET 17.399500 24.608795 1.168800
					CHANNELS 3 Xrotation Yrotation Zrotation
					JOINT LeftArm
					{
						OFFSET 18.980635 5.765305 1.818600
						CHANNELS 3 Xrotation Yrotation Zrotation
						JOINT LeftForeArm
						{
							OFFSET 49.290169 0.000000 0.000000
							CHANNELS 3 Xrotation Yrotation Zrotation
							JOINT LeftHand
							{
								OFFSET 31.562012 0.000000 0.000000
								CHANNELS 3 Xrotation Yrotation Zrotation
								JOINT LeftHandThumb1
								{
									OFFSET 6.133995 -4.388519 7.076070
									CHANNELS 3 Xrotation Yrotation Zrotation
									JOINT LeftHandThumb2
									{
										OFFSET 6.037666 -3.485840 3.485847
										CHANNELS 3 Xrotation Yrotation Zrotation
										JOINT LeftHandThumb3
										{
											OFFSET 6.496506 -3.750763 3.750761
											CHANNELS 3 Xrotation Yrotation Zrotation
											JOINT LeftHandThumb4
											{
												OFFSET 5.616882 -3.242905 3.242910
												CHANNELS 3 Xrotation Yrotation Zrotation
												End Site
												{
													OFFSET -1.254608 7.132141 0.375429
												}
											}
										}
									}
								}
								JOINT LeftHandPinky1
								{
									OFFSET 18.920792 -0.453171 -11.426712
									CHANNELS 3 Xrotation Yrotation Zrotation
									JOINT LeftHandPinky2
									{
										OFFSET 4.919586 0.000000 0.000000
										CHANNELS 3 Xrotation Yrotation Zrotation
										JOINT LeftHandPinky3
										{
											OFFSET 5.233047 0.000000 0.000000
											CHANNELS 3 Xrotation Yrotation Zrotation
											JOINT LeftHandPinky4
											{
												OFFSET 5.571716 0.000000 0.000000
												CHANNELS 3 Xrotation Yrotation Zrotation
												End Site
												{
													OFFSET -3.459808 4.342407 -0.466164
												}
											}
										}
									}
								}
								JOINT LeftHandRing1
								{
									OFFSET 22.726120 -0.094986 -6.500475
									CHANNELS 3 Xrotation Yrotation Zrotation
									JOINT LeftHandRing2
									{
										OFFSET 6.408615 0.000000 0.000000
										CHANNELS 3 Xrotation Yrotation Zrotation
										JOINT LeftHandRing3
										{
											OFFSET 6.150223 0.000000 0.000000
											CHANNELS 3 Xrotation Yrotation Zrotation
											JOINT LeftHandRing4
											{
												OFFSET 6.145386 0.000000 0.000000
												CHANNELS 3 Xrotation Yrotation Zrotation
												End Site
												{
													OFFSET -3.671402 4.923981 -0.202372
												}
											}
										}
									}
								}
								JOINT LeftHandMiddle1
								{
									OFFSET 23.373947 0.000000 0.000001
									CHANNELS 3 Xrotation Yrotation Zrotation
									JOINT LeftHandMiddle2
									{
										OFFSET 6.996567 0.000000 0.000000
										CHANNELS 3 Xrotation Yrotation Zrotation
										JOINT LeftHandMiddle3
										{
											OFFSET 7.015945 0.000000 0.000000
											CHANNELS 3 Xrotation Yrotation Zrotation
											JOINT LeftHandMiddle4
											{
												OFFSET 7.721573 0.000000 0.000000
												CHANNELS 3 Xrotation Yrotation Zrotation
												End Site
												{
													OFFSET -4.651108 6.158463 0.251582
												}
											}
										}
									}
								}
								JOINT LeftHandIndex1
								{
									OFFSET 21.310577 -0.490082 6.209344
									CHANNELS 3 Xrotation Yrotation Zrotation
									JOINT LeftHandIndex2
									{
										OFFSET 7.536453 0.000000 0.000000
										CHANNELS 3 Xrotation Yrotation Zrotation
										JOINT LeftHandIndex3
										{
											OFFSET 7.512344 0.000000 0.000000
											CHANNELS 3 Xrotation Yrotation Zrotation
											JOINT LeftHandIndex4
											{
												OFFSET 10.212402 0.000000 0.000001
												CHANNELS 3 Xrotation Yrotation Zrotation
												End Site
												{
													OFFSET -5.180801 8.690506 1.388433
												}
											}
										}
									}
								}
							}
						}
					}
				}
				JOINT RightShoulder
				{
					OFFSET -17.399500 24.608795 1.168800
					CHANNELS 3 Xrotation Yrotation Zrotation
					JOINT RightArm
					{
						OFFSET -18.980635 5.765305 1.818600
						CHANNELS 3 Xrotation Yrotation Zrotation
						JOINT RightForeArm
						{
							OFFSET -49.290169 0.000000 0.000000
							CHANNELS 3 Xrotation Yrotation Zrotation
							JOINT RightHand
							{
								OFFSET -31.562012 0.000000 0.000000
								CHANNELS 3 Xrotation Yrotation Zrotation
								JOINT RightHandThumb1
								{
									OFFSET -6.133995 -4.388519 7.076070
									CHANNELS 3 Xrotation Yrotation Zrotation
									JOINT RightHandThumb2
									{
										OFFSET -6.037666 -3.485840 3.485847
										CHANNELS 3 Xrotation Yrotation Zrotation
										JOINT RightHandThumb3
										{
											OFFSET -6.496506 -3.750763 3.750761
											CHANNELS 3 Xrotation Yrotation Zrotation
											JOINT RightHandThumb4
											{
												OFFSET -5.616882 -3.242905 3.242910
												CHANNELS 3 Xrotation Yrotation Zrotation
												End Site
												{
													OFFSET 1.254608 7.132141 0.375429
												}
											}
										}
									}
								}
								JOINT RightHandIndex1
								{
									OFFSET -21.310577 -0.490082 6.209344
									CHANNELS 3 Xrotation Yrotation Zrotation
									JOINT RightHandIndex2
									{
										OFFSET -7.536453 0.000000 0.000000
										CHANNELS 3 Xrotation Yrotation Zrotation
										JOINT RightHandIndex3
										{
											OFFSET -7.512344 0.000000 0.000000
											CHANNELS 3 Xrotation Yrotation Zrotation
											JOINT RightHandIndex4
											{
												OFFSET -10.212402 0.000000 0.000001
												CHANNELS 3 Xrotation Yrotation Zrotation
												End Site
												{
													OFFSET 5.180801 8.690506 1.388433
												}
											}
										}
									}
								}
								JOINT RightHandMiddle1
								{
									OFFSET -23.373947 0.000000 0.000001
									CHANNELS 3 Xrotation Yrotation Zrotation
									JOINT RightHandMiddle2
									{
										OFFSET -6.996567 0.000000 0.000000
										CHANNELS 3 Xrotation Yrotation Zrotation
										JOINT RightHandMiddle3
										{
											OFFSET -7.015945 0.000000 0.000000
											CHANNELS 3 Xrotation Yrotation Zrotation
											JOINT RightHandMiddle4
											{
												OFFSET -7.721573 0.000000 0.000000
												CHANNELS 3 Xrotation Yrotation Zrotation
												End Site
												{
													OFFSET 4.651108 6.158463 0.251582
												}
											}
										}
									}
								}
								JOINT RightHandRing1
								{
									OFFSET -22.726120 -0.094986 -6.500475
									CHANNELS 3 Xrotation Yrotation Zrotation
									JOINT RightHandRing2
									{
										OFFSET -6.408615 0.000000 0.000000
										CHANNELS 3 Xrotation Yrotation Zrotation
										JOINT RightHandRing3
										{
											OFFSET -6.150223 0.000000 0.000000
											CHANNELS 3 Xrotation Yrotation Zrotation
											JOINT RightHandRing4
											{
												OFFSET -6.145386 0.000000 0.000000
												CHANNELS 3 Xrotation Yrotation Zrotation
												End Site
												{
													OFFSET 3.671402 4.923981 -0.202372
												}
											}
										}
									}
								}
								JOINT RightHandPinky1
								{
									OFFSET -18.920792 -0.453171 -11.426712
									CHANNELS 3 Xrotation Yrotation Zrotation
									JOINT RightHandPinky2
									{
										OFFSET -4.919586 0.000000 0.000000
										CHANNELS 3 Xrotation Yrotation Zrotation
										JOINT RightHandPinky3
										{
											OFFSET -5.233047 0.000000 0.000000
											CHANNELS 3 Xrotation Yrotation Zrotation
											JOINT RightHandPinky4
											{
												OFFSET -5.571716 0.000000 0.000000
												CHANNELS 3 Xrotation Yrotation Zrotation
												End Site
												{
													OFFSET 3.459808 4.342407 -0.466164
												}
											}
										}
									}
								}
							}
						}
					}
				}
			}
		}
	}
	JOINT LeftUpLeg
	{
		OFFSET 19.899099 -7.885101 -3.429500
		CHANNELS 3 Xrotation Yrotation Zrotation
		JOINT LeftLeg
		{
			OFFSET 1.745560 -36.997807 10.304700
			CHANNELS 3 Xrotation Yrotation Zrotation
			JOINT LeftFoot
			{
				OFFSET -1.745558 -29.803308 -13.615400
				CHANNELS 3 Xrotation Yrotation Zrotation
				JOINT LeftToeBase
				{
					OFFSET 1.181900 -18.539904 15.226099
					CHANNELS 3 Xrotation Yrotation Zrotation
					JOINT LeftToe_End
					{
						OFFSET -0.863701 1.402801 16.534700
						CHANNELS 3 Xrotation Yrotation Zrotation
						End Site
						{
							OFFSET 0.000000 16.616566 0.000000
						}
					}
				}
			}
		}
	}
	JOINT RightUpLeg
	{
		OFFSET -19.899099 -7.885101 -3.429500
		CHANNELS 3 Xrotation Yrotation Zrotation
		JOINT RightLeg
		{
			OFFSET -1.745560 -36.997807 10.304700
			CHANNELS 3 Xrotation Yrotation Zrotation
			JOINT RightFoot
			{
				OFFSET 1.745558 -29.803308 -13.615400
				CHANNELS 3 Xrotation Yrotation Zrotation
				JOINT RightToeBase
				{
					OFFSET -1.181900 -18.539904 15.226099
					CHANNELS 3 Xrotation Yrotation Zrotation
					JOINT RightToe_End
					{
						OFFSET 0.863701 1.402801 16.534700
						CHANNELS 3 Xrotation Yrotation Zrotation
						End Site
						{
							OFFSET 0.000000 16.616566 0.000000
						}
					}
				}
			}
		}
	}
}
MOTION
Frames: 4
Frame Time: 0.033333
14.806446 27.767281 -137.156906 -175.785573 68.359258 73.660339 7.661381 -12.311793 9.395472 13.144764 -12.452595 2.040856 13.544250 -12.762041 2.107555 7.570292 1.138958 -15.495292 20.681285 -2.644442 -0.807576 0.000002 -0.000002 0.000001 0.604058 -21.914191 10.043050 -7.542241 -24.220927 -16.517131 84.432449 -105.733343 95.341190 -8.909187 -36.397508 28.404557 -15.588184 -16.830607 12.651596 15.732265 12.674826 8.828565 63.207049 -8.274995 4.266030 -0.000000 -0.000000 0.000000 -8.819324 8.292944 -33.891843 -0.002593 -0.026119 -26.165698 0.006714 -0.002790 -7.082893 0.000003 -0.000002 -0.000001 -4.418092 3.958100 -18.531063 -1.028599 -0.685554 -39.359129 -0.068529 1.214616 -27.464338 -0.000000 -0.000001 0.000003 -5.403367 2.502393 -1.487907 -0.042214 -4.880090 -51.906354 1.579255 0.602353 -17.956280 -0.000001 -0.000002 0.000003 -3.639948 -2.545533 0.206747 -0.009634 -4.393953 -23.584319 1.859829 0.688371 -27.132179 -0.000000 0.000003 0.000001 3.521028 6.386181 -23.948207 -83.008689 24.790631 60.516118 215.293778 105.158016 -229.124734 -3.525460 -1.809744 -4.461704 24.918306 -21.323306 30.343037 9.041910 8.262044 -18.001790 -16.109800 -19.128892 -12.401615 -0.000001 -0.000001 -0.000001 -0.070834 -3.035140 61.424246 0.006555 4.395063 66.609125 1.919164 -0.429121 59.456694 -0.000002 -0.000001 -0.000002 -1.235392 -0.119438 68.274223 -0.077315 4.902855 84.501960 0.918931 -1.334311 32.710227 -0.000001 0.000001 -0.000004 0.883134 -4.613479 79.192963 -0.717782 1.136502 73.255657 -0.065342 -1.198570 39.144350 -0.000000 0.000002 -0.000005 -3.944598 0.100006 86.764774 -0.029776 0.060118 54.415202 -0.007598 0.030609 25.829781 0.000002 0.000002 -0.000003 15.380758 2.253130 14.535454 30.746100 6.730965 -26.365060 4.778726 7.550410 -10.151043 -2.524214 -3.754692 4.103199 -0.000000 0.000001 -0.000002 -113.598846 11.609208 -3.315387 -23.513707 -6.505207 -6.705066 94.337753 19.696053 -2.717962 -1.366835 0.618604 -0.991726 -0.000001 0.000000 -0.000001 
17.547489 26.967148 -136.451233 -183.407969 68.871161 80.895606 7.717011 -11.582104 9.962582 13.346033 -11.558143 1.975135 13.789903 -12.128377 1.800834 9.603085 1.950885 -13.929887 23.824214 -1.141991 -4.260896 0.000003 0.000000 -0.000000 1.551034 -20.698899 13.344318 -13.714936 -31.652756 -21.987933 99.293390 -103.148520 111.504068 -6.603845 -30.446080 32.748752 -15.566491 -16.719321 12.685038 15.732260 12.674830 8.828564 63.207056 -8.274990 4.266029 0.000000 0.000001 -0.000002 -8.819606 8.292502 -34.334688 -0.002579 -0.026116 -26.165698 0.006724 -0.002791 -7.082884 -0.000000 -0.000003 0.000001 -4.418216 3.957739 -18.853317 -1.028586 -0.685564 -39.359132 -0.068534 1.214626 -27.464334 -0.000001 0.000001 0.000003 -5.403390 2.502062 -1.691820 -0.042203 -4.880100 -51.906330 1.579244 0.602334 -17.956301 0.000001 -0.000003 0.000004 -3.625422 -2.669624 0.051661 -0.009648 -4.393973 -23.584322 1.859832 0.688391 -27.132167 -0.000002 0.000003 0.000002 4.431563 8.948033 -23.903309 -87.253966 19.591860 64.991490 234.756826 98.748348 -247.862948 -4.086627 -0.341660 -6.510553 24.918308 -21.323306 30.343033 9.041908 8.262043 -18.001788 -16.109799 -19.128891 -12.401617 -0.000001 0.000002 0.000002 -0.070834 -3.035143 61.424246 0.006557 4.395061 66.609125 1.919159 -0.429123 59.456694 -0.000000 0.000000 -0.000001 -1.235394 -0.119443 68.274229 -0.077315 4.902852 84.501960 0.918931 -1.334310 32.710227 -0.000005 0.000002 -0.000004 0.883135 -4.613482 79.192970 -0.717784 1.136498 73.255650 -0.065346 -1.198572 39.144347 -0.000000 0.000000 -0.000007 -3.944599 0.100004 86.764774 -0.029778 0.060125 54.415202 -0.007603 0.030607 25.829781 -0.000000 -0.000001 0.000000 11.896673 2.463445 14.004329 30.556180 3.767400 -24.116081 4.384979 4.133574 -16.591569 -2.524120 -3.755302 4.102120 -0.000002 -0.000000 -0.000000 -117.937054 10.856479 -3.157537 -12.450154 -10.924189 -7.998755 94.945053 17.216723 -2.515007 -1.366500 0.618506 -0.993047 0.000000 -0.000000 -0.000001 
20.319031 25.789055 -136.014084 -191.447593 69.061279 88.913005 7.701574 -10.840340 10.411733 13.560617 -10.466851 1.929547 14.041692 -11.343185 1.480388 11.769737 2.540023 -11.843859 25.173391 0.085003 -6.915424 -0.000001 -0.000001 -0.000000 2.458181 -19.293597 16.315906 -21.190039 -38.015897 -28.738123 116.471692 -102.093768 129.719431 -4.081312 -24.508831 34.269603 -15.543540 -16.605078 12.718317 15.732268 12.674826 8.828568 63.207056 -8.274997 4.266038 0.000002 -0.000000 -0.000001 -8.819886 8.292094 -34.789948 -0.002578 -0.026134 -26.165714 0.006700 -0.002789 -7.082890 -0.000000 -0.000003 -0.000003 -4.418332 3.957405 -19.184623 -1.028592 -0.685562 -39.359156 -0.068532 1.214608 -27.464320 0.000003 0.000001 0.000002 -5.403393 2.501758 -1.901431 -0.042205 -4.880111 -51.906337 1.579255 0.602346 -17.956294 0.000001 -0.000001 0.000002 -3.611203 -2.797170 -0.107674 -0.009636 -4.393970 -23.584329 1.859829 0.688371 -27.132168 0.000000 -0.000000 -0.000001 5.143129 11.508672 -23.747169 -91.776535 15.591775 69.233168 277.846030 100.524149 -288.792692 -3.559686 -4.243127 -4.081304 24.918308 -21.323306 30.343033 9.041910 8.262042 -18.001792 -16.109795 -19.128886 -12.401620 0.000001 0.000001 -0.000001 -0.070835 -3.035141 61.424240 0.006553 4.395065 66.609125 1.919157 -0.429122 59.456694 -0.000001 0.000000 -0.000001 -1.235392 -0.119441 68.274229 -0.077314 4.902857 84.501960 0.918932 -1.334309 32.710230 0.000005 -0.000001 -0.000006 0.883138 -4.613481 79.192970 -0.717781 1.136500 73.255650 -0.065346 -1.198573 39.144350 -0.000000 0.000001 -0.000005 -3.944598 0.100005 86.764774 -0.029778 0.060126 54.415202 -0.007603 0.030605 25.829786 0.000003 0.000001 -0.000001 8.174014 2.420163 13.550288 31.084604 0.872959 -21.944097 3.785032 1.838424 -21.962849 -2.524097 -3.755943 4.100928 -0.000000 0.000000 -0.000000 -122.406306 11.263958 -3.228509 -0.826566 -13.886241 -8.361614 93.717968 15.743829 -0.645763 -1.366207 0.618388 -0.994390 0.000000 -0.000002 -0.000000 
23.034569 24.182098 -136.091293 -199.832894 68.828383 97.499523 7.585053 -10.078234 10.710025 13.712259 -9.380128 1.919694 14.312693 -10.595799 1.170176 13.583789 2.926524 -9.414026 25.648605 1.080465 -8.196270 -0.000003 -0.000001 -0.000000 3.153672 -17.868704 18.833046 -29.466990 -42.250338 -37.157670 134.669624 -102.498047 149.749999 -2.355871 -19.113472 28.568627 -15.519498 -16.488121 12.751320 15.732267 12.674831 8.828565 63.207049 -8.275001 4.266035 0.000001 0.000001 -0.000002 -8.820190 8.291635 -35.256689 -0.002593 -0.026131 -26.165709 0.006702 -0.002794 -7.082880 0.000001 0.000000 -0.000002 -4.418487 3.957058 -19.524296 -1.028596 -0.685563 -39.359143 -0.068532 1.214603 -27.464312 0.000002 0.000000 0.000003 -5.403378 2.501414 -2.116341 -0.042212 -4.880101 -51.906354 1.579256 0.602341 -17.956275 0.000001 0.000000 0.000004 -3.597375 -2.927958 -0.271120 -0.009626 -4.393973 -23.584326 1.859818 0.688389 -27.132151 -0.000001 -0.000000 -0.000003 5.672117 14.047233 -23.440359 -96.691669 13.850677 74.312083 283.565412 106.888711 -292.516047 -2.520423 -9.055753 -2.734360 24.918303 -21.323302 30.343033 9.041912 8.262041 -18.001787 -16.109802 -19.128891 -12.401622 -0.000001 -0.000002 0.000002 -0.070835 -3.035141 61.424240 0.006554 4.395070 66.609125 1.919162 -0.429121 59.456694 -0.000003 -0.000001 -0.000001 -1.235393 -0.119442 68.274229 -0.077314 4.902858 84.501960 0.918930 -1.334310 32.710234 0.000000 -0.000000 -0.000007 0.883135 -4.613480 79.192963 -0.717782 1.136499 73.255643 -0.065346 -1.198575 39.144354 0.000000 0.000001 -0.000005 -3.944596 0.100010 86.764774 -0.029777 0.060122 54.415202 -0.007603 0.030604 25.829781 -0.000000 -0.000000 0.000006 3.694124 2.907942 12.896597 32.666599 -1.881779 -19.896817 3.329349 0.800896 -24.129267 -2.524116 -3.756482 4.099836 0.000001 0.000001 0.000002 -126.674737 10.968117 -3.097094 10.054509 -15.041591 -7.407869 93.243721 14.462640 -0.446182 -1.365947 0.618284 -0.995793 0.000002 0.000000 -0.000000 
